<svg width="26" height="33" viewBox="0 0 26 33" fill="none" xmlns="http://www.w3.org/2000/svg">
<path d="M23.1111 0H2.88889C1.28556 0 0 1.41429 0 3.14286V25.1429C0 26.8714 1.28556 28.2857 2.88889 28.2857H8.66667L13 33L17.3333 28.2857H23.1111C24.7 28.2857 26 26.8714 26 25.1429V3.14286C26 1.41429 24.7 0 23.1111 0ZM23.1111 25.1429H16.1344L15.2822 26.07L13 28.5529L10.7033 26.0543L9.86555 25.1429H2.88889V3.14286H23.1111V25.1429ZM13 14.1429C15.3833 14.1429 17.3333 12.0214 17.3333 9.42857C17.3333 6.83571 15.3833 4.71429 13 4.71429C10.6167 4.71429 8.66667 6.83571 8.66667 9.42857C8.66667 12.0214 10.6167 14.1429 13 14.1429ZM13 7.85714C13.7944 7.85714 14.4444 8.56429 14.4444 9.42857C14.4444 10.2929 13.7944 11 13 11C12.2056 11 11.5556 10.2929 11.5556 9.42857C11.5556 8.56429 12.2056 7.85714 13 7.85714ZM21.6667 21.34C21.6667 17.4114 15.9322 15.7143 13 15.7143C10.0678 15.7143 4.33333 17.4114 4.33333 21.34V23.5714H21.6667V21.34ZM7.91555 20.4286C8.98444 19.6271 11.1367 18.8571 13 18.8571C14.8633 18.8571 17.0156 19.6271 18.0844 20.4286H7.91555Z" fill="#BBC9DA"/>
</svg>
