<svg width="60" height="55" viewBox="0 0 60 55" fill="none" xmlns="http://www.w3.org/2000/svg">
<rect x="0.287598" width="59.4977" height="55" rx="27.5" fill="#032443"/>
<path d="M40.9808 11H19.9406C18.2724 11 16.9348 12.4143 16.9348 14.1429V36.1429C16.9348 37.8714 18.2724 39.2857 19.9406 39.2857H25.952L30.4607 44L34.9693 39.2857H40.9808C42.6339 39.2857 43.9865 37.8714 43.9865 36.1429V14.1429C43.9865 12.4143 42.6339 11 40.9808 11ZM40.9808 36.1429H33.7219L32.8352 37.07L30.4607 39.5529L28.0711 37.0543L27.1994 36.1429H19.9406V14.1429H40.9808V36.1429ZM30.4607 25.1429C32.9404 25.1429 34.9693 23.0214 34.9693 20.4286C34.9693 17.8357 32.9404 15.7143 30.4607 15.7143C27.9809 15.7143 25.952 17.8357 25.952 20.4286C25.952 23.0214 27.9809 25.1429 30.4607 25.1429ZM30.4607 18.8571C31.2872 18.8571 31.9635 19.5643 31.9635 20.4286C31.9635 21.2929 31.2872 22 30.4607 22C29.6341 22 28.9578 21.2929 28.9578 20.4286C28.9578 19.5643 29.6341 18.8571 30.4607 18.8571ZM39.4779 32.34C39.4779 28.4114 33.5115 26.7143 30.4607 26.7143C27.4098 26.7143 21.4434 28.4114 21.4434 32.34V34.5714H39.4779V32.34ZM25.1705 31.4286C26.2827 30.6271 28.522 29.8571 30.4607 29.8571C32.3994 29.8571 34.6386 30.6271 35.7508 31.4286H25.1705Z" fill="#BBC9DA"/>
</svg>
