<svg width="34" height="30" viewBox="0 0 34 30" fill="none" xmlns="http://www.w3.org/2000/svg">
<g id="ic:outline-data-exploration" opacity="0.9">
<path id="Vector" d="M16.807 2.5C9.26143 2.5 3.13745 8.1 3.13745 15C3.13745 21.9 9.26143 27.5 16.807 27.5H27.7427C29.2464 27.5 30.4766 26.375 30.4766 25V15C30.4766 8.1 24.3527 2.5 16.807 2.5ZM16.807 25C12.8565 25 9.38445 23.075 7.47071 20.2L11.5032 16.5125L16.0005 20L22.2749 14.275V16.25H25.0088V10H18.174V12.5H20.3338L15.8502 16.6L11.3392 13.125L6.29513 17.75C6.02173 16.875 5.87137 15.95 5.87137 15C5.87137 9.4875 10.7788 5 16.807 5C22.8353 5 27.7427 9.4875 27.7427 15C27.7427 20.5125 22.8353 25 16.807 25ZM27.0592 25.625C26.3074 25.625 25.6923 25.0625 25.6923 24.375C25.6923 23.6875 26.3074 23.125 27.0592 23.125C27.8111 23.125 28.4262 23.6875 28.4262 24.375C28.4262 25.0625 27.8111 25.625 27.0592 25.625Z" fill="#544C4C"/>
</g>
</svg>
