<svg width="34" height="30" viewBox="0 0 34 30" fill="none" xmlns="http://www.w3.org/2000/svg">
<g id="ic:outline-lock">
<path id="Vector" d="M25.1024 10H23.7354V7.5C23.7354 4.05 20.6734 1.25 16.9006 1.25C13.1278 1.25 10.0658 4.05 10.0658 7.5V10H8.69888C7.19523 10 5.96497 11.125 5.96497 12.5V25C5.96497 26.375 7.19523 27.5 8.69888 27.5H25.1024C26.606 27.5 27.8363 26.375 27.8363 25V12.5C27.8363 11.125 26.606 10 25.1024 10ZM12.7998 7.5C12.7998 5.425 14.6315 3.75 16.9006 3.75C19.1698 3.75 21.0015 5.425 21.0015 7.5V10H12.7998V7.5ZM25.1024 25H8.69888V12.5H25.1024V25ZM16.9006 21.25C18.4043 21.25 19.6346 20.125 19.6346 18.75C19.6346 17.375 18.4043 16.25 16.9006 16.25C15.397 16.25 14.1667 17.375 14.1667 18.75C14.1667 20.125 15.397 21.25 16.9006 21.25Z" fill="#544C4C"/>
</g>
</svg>
