<svg width="33" height="30" viewBox="0 0 33 30" fill="none" xmlns="http://www.w3.org/2000/svg">
<g id="ic:sharp-people-outline">
<path id="Vector" d="M12.3026 15C14.9408 15 17.087 13.0375 17.087 10.625C17.087 8.2125 14.9408 6.25 12.3026 6.25C9.66437 6.25 7.51824 8.2125 7.51824 10.625C7.51824 13.0375 9.66437 15 12.3026 15ZM12.3026 8.75C13.4372 8.75 14.353 9.5875 14.353 10.625C14.353 11.6625 13.4372 12.5 12.3026 12.5C11.168 12.5 10.2522 11.6625 10.2522 10.625C10.2522 9.5875 11.168 8.75 12.3026 8.75ZM12.3026 17.1875C9.10392 17.1875 2.73389 18.65 2.73389 21.5625V23.75H21.8713V21.5625C21.8713 18.65 15.5013 17.1875 12.3026 17.1875ZM5.93257 21.25C7.08082 20.525 9.85574 19.6875 12.3026 19.6875C14.7495 19.6875 17.5244 20.525 18.6726 21.25H5.93257ZM21.926 17.2625C23.5117 18.3125 24.6052 19.7125 24.6052 21.5625V23.75H30.0731V21.5625C30.0731 19.0375 25.2887 17.6 21.926 17.2625ZM20.5044 15C23.1426 15 25.2887 13.0375 25.2887 10.625C25.2887 8.2125 23.1426 6.25 20.5044 6.25C19.7662 6.25 19.0827 6.4125 18.4539 6.6875C19.3151 7.8 19.8209 9.1625 19.8209 10.625C19.8209 12.0875 19.3151 13.45 18.4539 14.5625C19.0827 14.8375 19.7662 15 20.5044 15Z" fill="#544C4C"/>
</g>
</svg>
