<svg width="34" height="30" viewBox="0 0 34 30" fill="none" xmlns="http://www.w3.org/2000/svg">
<g id="iconamoon:notification">
<g id="Group">
<path id="Vector" d="M8.69888 23.75V12.5C8.69888 10.5109 9.563 8.60322 11.1011 7.1967C12.6392 5.79018 14.7254 5 16.9006 5C19.0759 5 21.162 5.79018 22.7002 7.1967C24.2383 8.60322 25.1024 10.5109 25.1024 12.5V23.75M8.69888 23.75H25.1024M8.69888 23.75H5.96497M25.1024 23.75H27.8363M15.5337 27.5H18.2676" stroke="#544C4C" stroke-width="2.66667" stroke-linecap="round" stroke-linejoin="round"/>
<path id="Vector_2" d="M16.9007 5C17.6556 5 18.2676 4.44036 18.2676 3.75C18.2676 3.05964 17.6556 2.5 16.9007 2.5C16.1457 2.5 15.5337 3.05964 15.5337 3.75C15.5337 4.44036 16.1457 5 16.9007 5Z" stroke="#544C4C" stroke-width="2.66667"/>
</g>
</g>
</svg>
