<svg width="34" height="30" viewBox="0 0 34 30" fill="none" xmlns="http://www.w3.org/2000/svg">
<g id="material-symbols:privacy-tip-outline">
<path id="Vector" d="M15.5337 21.25H18.2676V13.75H15.5337V21.25ZM16.9006 11.25C17.2879 11.25 17.6128 11.13 17.8753 10.89C18.1377 10.65 18.2685 10.3533 18.2676 10C18.2676 9.64583 18.1364 9.34875 17.8739 9.10875C17.6115 8.86875 17.287 8.74917 16.9006 8.75C16.5133 8.75 16.1885 8.87 15.926 9.11C15.6635 9.35 15.5328 9.64667 15.5337 10C15.5337 10.3542 15.6649 10.6513 15.9274 10.8913C16.1898 11.1313 16.5142 11.2508 16.9006 11.25ZM16.9006 27.5C13.7339 26.7708 11.1193 25.1092 9.05703 22.515C6.99474 19.9208 5.96406 17.0408 5.96497 13.875V6.25L16.9006 2.5L27.8363 6.25V13.875C27.8363 17.0417 26.8052 19.9221 24.7429 22.5163C22.6806 25.1104 20.0665 26.7717 16.9006 27.5ZM16.9006 24.875C19.27 24.1875 21.2293 22.8125 22.7786 20.75C24.3278 18.6875 25.1024 16.3958 25.1024 13.875V7.96875L16.9006 5.15625L8.69888 7.96875V13.875C8.69888 16.3958 9.47349 18.6875 11.0227 20.75C12.5719 22.8125 14.5312 24.1875 16.9006 24.875Z" fill="#544C4C"/>
</g>
</svg>
