<svg width="34" height="30" viewBox="0 0 34 30" fill="none" xmlns="http://www.w3.org/2000/svg">
<g id="mdi:question-mark-circle-outline">
<path id="Vector" d="M15.5336 22.5H18.2675V20H15.5336V22.5ZM16.9005 2.5C15.1054 2.5 13.3279 2.82332 11.6694 3.45151C10.011 4.07969 8.50403 5.00043 7.23469 6.16117C4.67114 8.50537 3.23096 11.6848 3.23096 15C3.23096 18.3152 4.67114 21.4946 7.23469 23.8388C8.50403 24.9996 10.011 25.9203 11.6694 26.5485C13.3279 27.1767 15.1054 27.5 16.9005 27.5C20.526 27.5 24.0029 26.183 26.5664 23.8388C29.13 21.4946 30.5701 18.3152 30.5701 15C30.5701 13.3585 30.2166 11.733 29.5296 10.2165C28.8426 8.69989 27.8357 7.3219 26.5664 6.16117C25.2971 5.00043 23.7901 4.07969 22.1317 3.45151C20.4732 2.82332 18.6957 2.5 16.9005 2.5ZM16.9005 25C10.8723 25 5.96488 20.5125 5.96488 15C5.96488 9.4875 10.8723 5 16.9005 5C22.9288 5 27.8362 9.4875 27.8362 15C27.8362 20.5125 22.9288 25 16.9005 25ZM16.9005 7.5C15.4504 7.5 14.0596 8.02678 13.0342 8.96447C12.0088 9.90215 11.4327 11.1739 11.4327 12.5H14.1666C14.1666 11.837 14.4547 11.2011 14.9674 10.7322C15.4801 10.2634 16.1755 10 16.9005 10C17.6256 10 18.321 10.2634 18.8337 10.7322C19.3464 11.2011 19.6345 11.837 19.6345 12.5C19.6345 15 15.5336 14.6875 15.5336 18.75H18.2675C18.2675 15.9375 22.3684 15.625 22.3684 12.5C22.3684 11.1739 21.7923 9.90215 20.7669 8.96447C19.7415 8.02678 18.3507 7.5 16.9005 7.5Z" fill="#544C4C"/>
</g>
</svg>
