<svg width="34" height="30" viewBox="0 0 34 30" fill="none" xmlns="http://www.w3.org/2000/svg">
<g id="ri:delete-bin-5-line" opacity="0.9">
<path id="Vector" d="M5.87137 10H27.7427V26.25C27.7427 26.5815 27.5987 26.8995 27.3423 27.1339C27.086 27.3683 26.7383 27.5 26.3758 27.5H7.23833C6.87579 27.5 6.5281 27.3683 6.27174 27.1339C6.01539 26.8995 5.87137 26.5815 5.87137 26.25V10ZM8.60529 12.5V25H25.0088V12.5H8.60529ZM12.7062 15H15.4401V22.5H12.7062V15ZM18.174 15H20.9079V22.5H18.174V15ZM9.97225 6.25V3.75C9.97225 3.41848 10.1163 3.10054 10.3726 2.86612C10.629 2.6317 10.9767 2.5 11.3392 2.5H22.2749C22.6374 2.5 22.9851 2.6317 23.2415 2.86612C23.4978 3.10054 23.6418 3.41848 23.6418 3.75V6.25H30.4766V8.75H3.13745V6.25H9.97225ZM12.7062 5V6.25H20.9079V5H12.7062Z" fill="#544C4C"/>
</g>
</svg>
