<svg width="34" height="30" viewBox="0 0 34 30" fill="none" xmlns="http://www.w3.org/2000/svg">
<g id="tabler:circle-letter-i">
<path id="Vector" d="M16.9005 10V20M4.5979 15C4.5979 16.4774 4.91612 17.9403 5.53438 19.3052C6.15265 20.6701 7.05885 21.9103 8.20126 22.955C9.34366 23.9996 10.6999 24.8283 12.1925 25.3936C13.6851 25.959 15.2849 26.25 16.9005 26.25C18.5161 26.25 20.1159 25.959 21.6085 25.3936C23.1012 24.8283 24.4574 23.9996 25.5998 22.955C26.7422 21.9103 27.6484 20.6701 28.2667 19.3052C28.8849 17.9403 29.2032 16.4774 29.2032 15C29.2032 13.5226 28.8849 12.0597 28.2667 10.6948C27.6484 9.3299 26.7422 8.08971 25.5998 7.04505C24.4574 6.00039 23.1012 5.17172 21.6085 4.60636C20.1159 4.04099 18.5161 3.75 16.9005 3.75C15.2849 3.75 13.6851 4.04099 12.1925 4.60636C10.6999 5.17172 9.34366 6.00039 8.20126 7.04505C7.05885 8.08971 6.15265 9.3299 5.53438 10.6948C4.91612 12.0597 4.5979 13.5226 4.5979 15Z" stroke="#544C4C" stroke-width="2.66667" stroke-linecap="round" stroke-linejoin="round"/>
</g>
</svg>
