<svg width="61" height="55" viewBox="0 0 61 55" fill="none" xmlns="http://www.w3.org/2000/svg">
<rect x="0.413452" width="60.1402" height="55" rx="27.5" fill="#032443"/>
<path d="M38.04 22.8201L32.28 18.7901C30.71 17.6901 28.3 17.7501 26.79 18.9201L21.78 22.8301C20.78 23.6101 19.99 25.2101 19.99 26.4701V33.3701C19.99 35.9201 22.06 38.0001 24.61 38.0001H35.39C37.94 38.0001 40.01 35.9301 40.01 33.3801V26.6001C40.01 25.2501 39.14 23.5901 38.04 22.8201ZM30.75 34.0001C30.75 34.4101 30.41 34.7501 30 34.7501C29.59 34.7501 29.25 34.4101 29.25 34.0001V31.0001C29.25 30.5901 29.59 30.2501 30 30.2501C30.41 30.2501 30.75 30.5901 30.75 31.0001V34.0001Z" fill="#BBC9DA"/>
</svg>
