<svg width="48" height="67" viewBox="0 0 48 67" fill="none" xmlns="http://www.w3.org/2000/svg">
<path d="M34 50.25C35.2 46.0756 37.6875 42.5162 40.15 38.9699C40.8 38.0408 41.45 37.1117 42.075 36.1695C44.55 32.44 46 27.9254 46 23.0443C46 10.3117 36.15 0 24 0C11.85 0 2 10.3117 2 23.0312C2 27.9123 3.45 32.44 5.925 36.1564C6.55 37.0986 7.2 38.0277 7.85 38.9568C10.325 42.5031 12.8125 46.0756 14 50.2369H34V50.25ZM24 67C29.525 67 34 62.3152 34 56.5312V54.4375H14V56.5312C14 62.3152 18.475 67 24 67ZM14 23.0312C14 24.1828 13.1 25.125 12 25.125C10.9 25.125 10 24.1828 10 23.0312C10 14.9311 16.2625 8.375 24 8.375C25.1 8.375 26 9.31719 26 10.4688C26 11.6203 25.1 12.5625 24 12.5625C18.475 12.5625 14 17.2473 14 23.0312Z" fill="#FE7835"/>
</svg>
