<svg width="86" height="109" viewBox="0 0 86 109" fill="none" xmlns="http://www.w3.org/2000/svg">
<path d="M-3.03081 53.0524C-2.41769 52.4392 -4.1123 45.1413 3.44106 39.504C10.9944 33.8667 16.1464 37.2303 16.8702 36.9834C17.5855 36.7449 20.9492 21.9959 35.0936 18.1638C49.2381 14.3318 63.9872 21.519 67.4615 33.509C70.6379 44.4686 68.1768 51.8517 68.543 52.3285C68.9007 52.8054 75.7387 52.567 79.69 58.9196C83.6412 65.2723 82.2106 69.2321 82.2106 69.2321L57.0384 77.0238H16.7595C16.7595 77.0238 -18.7251 67.6737 -19.0828 65.9961C-19.4404 64.3185 -18.6314 58.8685 -12.8493 55.5645C-7.82511 52.6947 -4.1123 54.1338 -3.03081 53.0524Z" fill="#E4EAEE"/>
<path d="M6.94093 79.059C6.94093 79.059 -6.49673 81.8692 -15.5829 74.8353C-21.0499 70.5945 -19.0573 63.7224 -19.0573 63.7224C-19.0573 63.7224 -15.1401 67.6822 -7.22907 68.7551C0.681944 69.8366 9.55522 69.4705 9.55522 69.4705C9.55522 69.4705 11.7693 73.2514 20.1061 74.9886C30.5548 77.1601 36.0644 71.8123 36.0644 71.8123C36.0644 71.8123 38.9256 75.2355 48.9996 75.474C59.0736 75.7124 64.7194 68.6785 65.6647 68.5167C66.1416 68.4401 68.9177 70.9607 74.4187 70.0751C79.6559 69.232 82.4149 66.9583 82.4149 66.9583C82.4149 66.9583 83.1728 72.5957 77.9016 76.0701C73.7886 78.778 66.6355 79.0676 66.6355 79.0676C66.6355 79.0676 65.5455 83.2487 60.6319 86.2888C56.0676 89.1245 48.1991 90.0698 42.3744 88.3326C35.0595 86.1526 33.2457 82.823 33.2457 82.823C33.2457 82.823 27.7957 86.0163 19.2801 84.9348C11.2328 83.93 6.94093 79.059 6.94093 79.059Z" fill="#BACDD2"/>
</svg>
