<svg width="373" height="15" viewBox="0 0 373 15" fill="none" xmlns="http://www.w3.org/2000/svg">
<path d="M1.43555 6.62634C1.43555 6.87537 1.44287 7.10486 1.45752 7.31482C1.47217 7.5199 1.52344 7.73474 1.61133 7.95935C1.61621 7.96912 1.62598 7.99109 1.64062 8.02527C1.66016 8.05457 1.67969 8.08875 1.69922 8.12781C1.72363 8.16687 1.74316 8.20349 1.75781 8.23767C1.77734 8.26697 1.78711 8.2865 1.78711 8.29626C1.79199 8.30603 1.79932 8.328 1.80908 8.36218C1.81885 8.39148 1.82861 8.42566 1.83838 8.46472C1.85303 8.50378 1.86523 8.54041 1.875 8.57458C1.88477 8.60388 1.88965 8.62097 1.88965 8.62585C1.89941 8.6405 1.92871 8.67224 1.97754 8.72107C2.03125 8.76501 2.06055 8.79431 2.06543 8.80896C2.0752 8.81384 2.08496 8.83337 2.09473 8.86755C2.10449 8.89685 2.11182 8.91394 2.1167 8.91882C2.13135 8.94324 2.15088 8.97498 2.17529 9.01404C2.19971 9.04822 2.22412 9.08484 2.24854 9.1239C2.27295 9.15808 2.29492 9.18982 2.31445 9.21912C2.33398 9.24353 2.34619 9.25818 2.35107 9.26306C2.47803 9.40466 2.62695 9.5072 2.79785 9.57068C2.96875 9.63416 3.14697 9.66589 3.33252 9.66589H3.45703C3.48145 9.66589 3.5083 9.66345 3.5376 9.65857C3.55225 9.65857 3.58154 9.64148 3.62549 9.6073C3.66943 9.57312 3.69629 9.55115 3.70605 9.54138C3.7207 9.5365 3.75488 9.52185 3.80859 9.49744C3.86719 9.46814 3.92822 9.43884 3.9917 9.40955C4.05518 9.37537 4.11377 9.34607 4.16748 9.32166C4.22607 9.29236 4.2627 9.27283 4.27734 9.26306C4.27734 9.26306 4.28711 9.24841 4.30664 9.21912C4.32617 9.18982 4.3457 9.1532 4.36523 9.10925C4.38965 9.06531 4.41406 9.02136 4.43848 8.97742C4.46777 8.92859 4.48975 8.88953 4.50439 8.86023C4.63623 8.60144 4.73389 8.34509 4.79736 8.09119C4.86084 7.8324 4.89258 7.55652 4.89258 7.26355C4.89258 7.05847 4.88281 6.83386 4.86328 6.58972C4.84375 6.3407 4.7998 6.11609 4.73145 5.91589C4.69727 5.81824 4.646 5.69861 4.57764 5.55701C4.51416 5.41541 4.44092 5.2738 4.35791 5.1322C4.2749 4.98572 4.18701 4.85144 4.09424 4.72937C4.00635 4.6073 3.91846 4.51697 3.83057 4.45837C3.72803 4.39001 3.6084 4.32654 3.47168 4.26794C3.33984 4.20935 3.21045 4.18005 3.0835 4.18005C2.99561 4.18005 2.91504 4.1825 2.8418 4.18738C2.77344 4.19226 2.68555 4.20691 2.57812 4.23132C2.49512 4.24597 2.41943 4.27771 2.35107 4.32654C2.2876 4.37537 2.22656 4.43152 2.16797 4.495C2.10938 4.55847 2.05322 4.62683 1.99951 4.70007C1.9458 4.77332 1.89209 4.84167 1.83838 4.90515C1.79443 4.95886 1.76025 4.99548 1.73584 5.01501C1.71631 5.02966 1.69678 5.06873 1.67725 5.1322C1.67236 5.14685 1.66016 5.18835 1.64062 5.25671C1.62598 5.32507 1.60889 5.39832 1.58936 5.47644C1.56982 5.55457 1.55029 5.62781 1.53076 5.69617C1.51611 5.75964 1.50635 5.79871 1.50146 5.81335C1.50146 5.82312 1.49414 5.84998 1.47949 5.89392C1.46484 5.93787 1.45508 5.96716 1.4502 5.98181C1.4502 6.00623 1.44775 6.05017 1.44287 6.11365C1.44287 6.17224 1.44287 6.23572 1.44287 6.30408C1.44287 6.37244 1.44043 6.43835 1.43555 6.50183C1.43555 6.56042 1.43555 6.60193 1.43555 6.62634ZM0.146484 14.5072C0.146484 14.4535 0.161133 14.4144 0.19043 14.39C0.224609 14.3705 0.263672 14.3387 0.307617 14.2948C0.463867 14.1678 0.620117 14.0385 0.776367 13.9066C0.932617 13.7748 1.08154 13.6429 1.22314 13.5111C1.4917 13.2523 1.75781 12.996 2.02148 12.7421C2.29004 12.4882 2.54639 12.2269 2.79053 11.9584C3.03467 11.6898 3.26416 11.4066 3.479 11.1088C3.69385 10.8158 3.88672 10.5009 4.05762 10.1639V10.1127C4.05762 10.0687 4.04053 10.0345 4.00635 10.0101C3.97705 9.98083 3.94043 9.95642 3.89648 9.93689C3.85254 9.91736 3.80615 9.90515 3.75732 9.90027C3.71338 9.8905 3.6792 9.88562 3.65479 9.88562C3.60596 9.88562 3.56445 9.8905 3.53027 9.90027C3.50098 9.91003 3.46924 9.92224 3.43506 9.93689C3.40576 9.95154 3.37158 9.96375 3.33252 9.97351C3.29346 9.98328 3.24463 9.98816 3.18604 9.98816C2.98584 9.98816 2.79785 9.96375 2.62207 9.91492C2.45117 9.86121 2.26562 9.81238 2.06543 9.76843H1.88965C1.88477 9.76843 1.86768 9.76111 1.83838 9.74646C1.81396 9.72693 1.79688 9.71472 1.78711 9.70984C1.64551 9.61707 1.50146 9.52429 1.35498 9.43152C1.21338 9.33875 1.07666 9.24353 0.944824 9.14587C0.935059 9.14099 0.925293 9.13123 0.915527 9.11658C0.905762 9.10193 0.898438 9.09216 0.893555 9.08728C0.859375 9.04333 0.812988 8.98718 0.754395 8.91882C0.700684 8.84558 0.644531 8.77478 0.585938 8.70642C0.532227 8.63318 0.483398 8.5697 0.439453 8.51599C0.400391 8.4574 0.378418 8.42322 0.373535 8.41345C0.373535 8.40857 0.368652 8.39392 0.358887 8.36951C0.349121 8.34021 0.336914 8.30847 0.322266 8.27429C0.307617 8.24011 0.292969 8.20837 0.27832 8.17908C0.268555 8.14978 0.26123 8.13025 0.256348 8.12048C0.246582 8.11072 0.227051 8.08386 0.197754 8.03992C0.168457 7.99597 0.151367 7.96912 0.146484 7.95935C0.146484 7.95447 0.144043 7.93982 0.13916 7.91541C0.134277 7.88611 0.129395 7.85681 0.124512 7.82751C0.119629 7.79333 0.112305 7.7616 0.102539 7.7323C0.0976562 7.703 0.0952148 7.68591 0.0952148 7.68103C0.0854492 7.66638 0.0732422 7.63708 0.0585938 7.59314C0.0488281 7.54431 0.0390625 7.51501 0.0292969 7.50525C0.0292969 7.48572 0.0268555 7.4491 0.0219727 7.39539C0.0219727 7.34167 0.0195312 7.28552 0.0146484 7.22693C0.00976562 7.16833 0.00488281 7.11218 0 7.05847C0 7.00476 0 6.9657 0 6.94128C0 6.9071 0 6.85828 0 6.7948C0.00488281 6.73132 0.00976562 6.67029 0.0146484 6.61169C0.0195312 6.5531 0.0219727 6.50183 0.0219727 6.45789C0.0268555 6.40906 0.0292969 6.3822 0.0292969 6.37732C0.0292969 6.37244 0.0366211 6.33582 0.0512695 6.26746C0.0708008 6.1991 0.0927734 6.12097 0.117188 6.03308C0.141602 5.94031 0.166016 5.84998 0.19043 5.76208C0.219727 5.66931 0.241699 5.59363 0.256348 5.53503C0.266113 5.50085 0.27832 5.45691 0.292969 5.4032C0.3125 5.34949 0.332031 5.29578 0.351562 5.24207C0.371094 5.18835 0.390625 5.13708 0.410156 5.08826C0.43457 5.03943 0.458984 5.00037 0.483398 4.97107C0.551758 4.86853 0.634766 4.76843 0.732422 4.67078C0.830078 4.57312 0.935059 4.48035 1.04736 4.39246C1.15967 4.30457 1.27441 4.224 1.3916 4.15076C1.50879 4.07263 1.62109 4.00671 1.72852 3.953H1.83838C1.91162 3.93835 1.9873 3.91638 2.06543 3.88708C2.14355 3.85779 2.21924 3.82605 2.29248 3.79187C2.37061 3.75769 2.44873 3.72839 2.52686 3.70398C2.60498 3.67957 2.68066 3.66492 2.75391 3.66003C2.75879 3.66003 2.77832 3.66003 2.8125 3.66003C2.85156 3.66003 2.89307 3.66003 2.93701 3.66003C2.98584 3.65515 3.03223 3.65271 3.07617 3.65271C3.125 3.65271 3.16406 3.65271 3.19336 3.65271C3.22266 3.65271 3.25928 3.65271 3.30322 3.65271C3.34717 3.65271 3.39111 3.65515 3.43506 3.66003C3.479 3.66003 3.51562 3.66003 3.54492 3.66003C3.5791 3.66003 3.59863 3.66003 3.60352 3.66003C3.61328 3.66003 3.6377 3.66492 3.67676 3.67468C3.7207 3.68445 3.76709 3.69666 3.81592 3.7113C3.86963 3.72595 3.91846 3.7406 3.9624 3.75525C4.01123 3.76501 4.04297 3.77234 4.05762 3.77722H4.10889C4.11865 3.77722 4.14062 3.77966 4.1748 3.78455C4.20898 3.78943 4.22852 3.79431 4.2334 3.79919C4.24316 3.79919 4.26758 3.8114 4.30664 3.83582C4.35059 3.86023 4.37744 3.87732 4.38721 3.88708C4.39697 3.89685 4.42383 3.90906 4.46777 3.92371C4.5166 3.93347 4.5459 3.94324 4.55566 3.953C4.92676 4.10925 5.22461 4.31677 5.44922 4.57556C5.67383 4.82947 5.86426 5.14929 6.02051 5.53503L6.0498 5.57898C6.05957 5.58875 6.06689 5.60095 6.07178 5.6156C6.08154 5.62537 6.08643 5.63269 6.08643 5.63757C6.09131 5.6571 6.09863 5.6864 6.1084 5.72546C6.12305 5.75964 6.13525 5.79626 6.14502 5.83533C6.15967 5.86951 6.17188 5.90125 6.18164 5.93054C6.19141 5.95984 6.19629 5.97693 6.19629 5.98181C6.19629 5.99158 6.19873 6.00623 6.20361 6.02576C6.2085 6.04529 6.21094 6.06726 6.21094 6.09167C6.21094 6.14539 6.2085 6.20398 6.20361 6.26746C6.19873 6.33093 6.19629 6.36755 6.19629 6.37732C6.19629 6.38708 6.19873 6.40906 6.20361 6.44324C6.2085 6.47253 6.21338 6.50671 6.21826 6.54578C6.22803 6.58484 6.23535 6.62146 6.24023 6.65564C6.24512 6.68494 6.24756 6.70447 6.24756 6.71423V7.17566C6.24756 7.18542 6.24512 7.2074 6.24023 7.24158C6.23535 7.27576 6.23047 7.31238 6.22559 7.35144C6.2207 7.3905 6.21338 7.42712 6.20361 7.4613C6.19873 7.49548 6.19385 7.51746 6.18896 7.52722L6.1377 8.53064C6.06934 8.60388 6.02295 8.68201 5.99854 8.76501C5.979 8.84314 5.95215 8.93347 5.91797 9.03601C5.9082 9.05066 5.896 9.07263 5.88135 9.10193C5.87158 9.12634 5.85938 9.1532 5.84473 9.1825C5.83496 9.21179 5.8252 9.24109 5.81543 9.27039C5.80566 9.2948 5.79834 9.30945 5.79346 9.31433C5.78857 9.32898 5.77393 9.35828 5.74951 9.40222C5.72998 9.44617 5.70801 9.49255 5.68359 9.54138C5.65918 9.59021 5.63477 9.6366 5.61035 9.68054C5.58594 9.72449 5.57129 9.75378 5.56641 9.76843C5.56152 9.78308 5.55176 9.81482 5.53711 9.86365C5.52246 9.91248 5.50537 9.96619 5.48584 10.0248C5.47119 10.0834 5.45654 10.1395 5.44189 10.1932C5.42725 10.2421 5.41748 10.2738 5.4126 10.2885C5.36865 10.3763 5.31494 10.4545 5.25146 10.5228C5.18799 10.5863 5.12451 10.6571 5.06104 10.7352C4.91943 10.9305 4.78271 11.1307 4.65088 11.3358C4.52393 11.5409 4.37744 11.7362 4.21143 11.9218C4.19678 11.9364 4.17236 11.9633 4.13818 12.0023C4.104 12.0414 4.06494 12.0804 4.021 12.1195C3.98193 12.1586 3.94287 12.1976 3.90381 12.2367C3.86963 12.2758 3.84521 12.3026 3.83057 12.3173C3.8208 12.3173 3.79395 12.3319 3.75 12.3612C3.70605 12.3954 3.67432 12.4174 3.65479 12.4271C3.64502 12.4369 3.62549 12.4467 3.59619 12.4564C3.56689 12.4662 3.54736 12.4735 3.5376 12.4784C3.5376 12.4882 3.52051 12.515 3.48633 12.559C3.45215 12.6078 3.43262 12.6371 3.42773 12.6469C3.40332 12.6761 3.35449 12.7274 3.28125 12.8007C3.21289 12.8739 3.13965 12.9496 3.06152 13.0277C2.9834 13.1058 2.90771 13.1791 2.83447 13.2474C2.76611 13.3158 2.71729 13.3597 2.68799 13.3793C2.67822 13.389 2.65869 13.3988 2.62939 13.4086C2.6001 13.4232 2.58301 13.4354 2.57812 13.4452C2.56348 13.4598 2.52197 13.4916 2.45361 13.5404C2.38525 13.5892 2.31201 13.6405 2.23389 13.6942C2.16064 13.7528 2.08984 13.8065 2.02148 13.8553C1.95312 13.9042 1.90918 13.9359 1.88965 13.9506C1.88965 13.9554 1.87744 13.9652 1.85303 13.9799C1.8335 13.9945 1.80908 14.0116 1.77979 14.0311C1.75049 14.0507 1.71875 14.0677 1.68457 14.0824C1.65527 14.1019 1.63086 14.1166 1.61133 14.1263C1.51855 14.1801 1.42822 14.2362 1.34033 14.2948C1.25244 14.3583 1.16211 14.4144 1.06934 14.4633C0.976562 14.5121 0.878906 14.5511 0.776367 14.5804C0.678711 14.6146 0.57373 14.6317 0.461426 14.6317H0.410156C0.351562 14.6317 0.292969 14.6244 0.234375 14.6097C0.175781 14.6 0.146484 14.5658 0.146484 14.5072Z" fill="white"/>
<path d="M7.66875 4.61218C7.66875 4.50964 7.68584 4.40955 7.72002 4.31189C7.75908 4.21423 7.81035 4.12878 7.87383 4.05554C7.94219 3.9823 8.02031 3.92371 8.1082 3.87976C8.20098 3.83582 8.30352 3.81384 8.41582 3.81384C8.52324 3.81384 8.61846 3.82117 8.70146 3.83582C8.78936 3.84558 8.86748 3.86511 8.93584 3.89441C9.00908 3.92371 9.075 3.96521 9.13359 4.01892C9.19707 4.06775 9.26055 4.13123 9.32402 4.20935C9.40215 4.30701 9.46074 4.4071 9.4998 4.50964C9.54375 4.61218 9.56572 4.73425 9.56572 4.87585C9.56572 4.88074 9.56328 4.88562 9.5584 4.8905C9.5584 4.89539 9.5584 4.90027 9.5584 4.90515C9.55352 4.91492 9.55107 4.92224 9.55107 4.92712C9.48271 5.1908 9.37773 5.38855 9.23613 5.52039C9.09453 5.65222 8.87969 5.71814 8.5916 5.71814H8.42314C8.41826 5.70349 8.38652 5.67419 8.32793 5.63025C8.26934 5.58142 8.23027 5.54968 8.21074 5.53503C8.19609 5.53015 8.1668 5.51306 8.12285 5.48376C8.07891 5.45447 8.05693 5.43494 8.05693 5.42517C7.99346 5.39099 7.9373 5.3446 7.88848 5.28601C7.83965 5.22253 7.79814 5.15417 7.76396 5.08093C7.73467 5.00769 7.71025 4.93201 7.69072 4.85388C7.67607 4.77087 7.66875 4.69031 7.66875 4.61218ZM8.28398 10.6034C8.26445 10.5302 8.24248 10.4691 8.21807 10.4203C8.19853 10.3666 8.179 10.3153 8.15947 10.2665C8.13994 10.2128 8.12285 10.1566 8.1082 10.098C8.09844 10.0394 8.09355 9.96863 8.09355 9.88562C8.09355 9.84167 8.10088 9.78308 8.11553 9.70984C8.13506 9.6366 8.14971 9.56824 8.15947 9.50476C8.18877 9.37292 8.25469 9.26306 8.35723 9.17517C8.45977 9.0824 8.57207 9.0116 8.69414 8.96277C8.81621 8.90906 8.93828 8.87244 9.06035 8.85291C9.1873 8.82849 9.2874 8.81628 9.36064 8.81628C9.37041 8.81628 9.37773 8.81873 9.38262 8.82361C9.3875 8.82361 9.39482 8.82361 9.40459 8.82361C9.41436 8.82849 9.42168 8.83093 9.42656 8.83093C9.59258 8.90906 9.70977 9.01648 9.77812 9.1532C9.84648 9.28992 9.88066 9.44128 9.88066 9.6073C9.88066 9.7489 9.8709 9.86609 9.85137 9.95886C9.83184 10.0516 9.79766 10.1346 9.74883 10.2079C9.70488 10.2811 9.64385 10.347 9.56572 10.4056C9.4876 10.4642 9.38994 10.5302 9.27275 10.6034C9.16045 10.6718 9.03838 10.7059 8.90654 10.7059C8.79912 10.7059 8.6917 10.6937 8.58428 10.6693C8.47686 10.64 8.37676 10.618 8.28398 10.6034Z" fill="white"/>
<path d="M13.5211 9.43884C13.565 9.49255 13.6065 9.52673 13.6456 9.54138C13.6895 9.55115 13.7408 9.55603 13.7994 9.55603H13.858C13.9801 9.55603 14.0997 9.52917 14.2169 9.47546C14.339 9.42175 14.4195 9.33875 14.4586 9.22644C14.4586 9.20691 14.4586 9.17273 14.4586 9.1239C14.4635 9.07507 14.4659 9.0238 14.4659 8.97009C14.4708 8.91638 14.4732 8.86755 14.4732 8.82361C14.4781 8.77478 14.4806 8.7406 14.4806 8.72107C14.4806 8.68689 14.4781 8.64294 14.4732 8.58923C14.4732 8.53064 14.4708 8.47449 14.4659 8.42078C14.4659 8.36218 14.4635 8.31335 14.4586 8.27429C14.4586 8.23523 14.4586 8.21326 14.4586 8.20837C14.4586 8.20349 14.4562 8.18152 14.4513 8.14246C14.4464 8.10339 14.4415 8.06189 14.4366 8.01794C14.4366 7.974 14.4342 7.9325 14.4293 7.89343C14.4244 7.85437 14.422 7.82996 14.422 7.82019C14.4171 7.79089 14.4122 7.71765 14.4073 7.60046C14.4024 7.48328 14.3976 7.35876 14.3927 7.22693C14.3878 7.09509 14.3829 6.97302 14.378 6.86072C14.3731 6.74353 14.3707 6.67029 14.3707 6.64099C14.3707 6.63611 14.3658 6.6239 14.3561 6.60437C14.3512 6.58484 14.3438 6.56287 14.3341 6.53845C14.3292 6.51404 14.3219 6.49207 14.3121 6.47253C14.3072 6.44812 14.3048 6.43103 14.3048 6.42126C14.3048 6.4115 14.3023 6.38953 14.2975 6.35535C14.2926 6.31628 14.2853 6.27722 14.2755 6.23816C14.2706 6.19421 14.2633 6.15515 14.2535 6.12097C14.2486 6.08191 14.2437 6.0575 14.2389 6.04773C14.2291 6.03796 14.2169 6.03308 14.2022 6.03308C14.1876 6.03308 14.1754 6.03308 14.1656 6.03308C14.0973 6.03308 14.0289 6.06726 13.9605 6.13562C13.8922 6.20398 13.8263 6.28699 13.7628 6.38464C13.7042 6.47742 13.648 6.57263 13.5943 6.67029C13.5455 6.76306 13.4991 6.83386 13.4552 6.88269C13.4503 6.88757 13.4356 6.90466 13.4112 6.93396C13.3868 6.95837 13.3575 6.98523 13.3233 7.01453C13.294 7.04382 13.2647 7.07312 13.2354 7.10242C13.211 7.12683 13.1915 7.14148 13.1769 7.14636C13.1085 7.22937 13.0426 7.32947 12.9791 7.44666C12.9156 7.56384 12.8497 7.67126 12.7813 7.76892C12.7081 7.87146 12.6251 7.974 12.5323 8.07654C12.4444 8.17908 12.3687 8.27917 12.3053 8.37683C12.2369 8.47937 12.1832 8.57214 12.1441 8.65515C12.11 8.73816 12.066 8.83582 12.0123 8.94812C11.9977 8.98718 11.9635 9.03113 11.9098 9.07996C11.8609 9.1239 11.8365 9.17273 11.8365 9.22644C11.8365 9.25574 11.8414 9.28015 11.8512 9.29968C11.8658 9.31921 11.9024 9.32898 11.961 9.32898L13.5211 9.43884ZM14.422 13.0497C14.422 12.7714 14.4293 12.5077 14.4439 12.2587C14.4635 12.0145 14.4879 11.746 14.5172 11.453C14.5514 11.4091 14.5733 11.3578 14.5831 11.2992C14.5929 11.2455 14.5978 11.1918 14.5978 11.1381V11.0209C14.5978 11.0013 14.5953 10.9623 14.5904 10.9037C14.5855 10.8451 14.5831 10.8011 14.5831 10.7719C14.5294 10.7328 14.4757 10.7059 14.422 10.6913C14.3683 10.6766 14.3145 10.6669 14.2608 10.662C14.2071 10.6522 14.151 10.6473 14.0924 10.6473C14.0338 10.6425 13.9728 10.6327 13.9093 10.618C13.9044 10.618 13.8775 10.6083 13.8287 10.5887C13.7848 10.5643 13.753 10.5521 13.7335 10.5521C13.7237 10.5521 13.6993 10.557 13.6603 10.5668C13.6261 10.5717 13.587 10.579 13.5431 10.5887C13.4991 10.5936 13.4576 10.601 13.4186 10.6107C13.3844 10.6156 13.3624 10.618 13.3526 10.618H13.1402C13.1158 10.618 13.0743 10.6278 13.0157 10.6473C12.9571 10.662 12.9229 10.6693 12.9132 10.6693H11.1773C11.109 10.6693 11.0406 10.6522 10.9723 10.618C10.9088 10.5839 10.8673 10.5472 10.8478 10.5082C10.838 10.4935 10.8185 10.474 10.7892 10.4496C10.7599 10.4203 10.7403 10.4008 10.7306 10.391C10.7306 10.3715 10.7281 10.3251 10.7232 10.2518C10.7184 10.1786 10.7159 10.1322 10.7159 10.1127C10.7159 9.97107 10.7354 9.85144 10.7745 9.75378C10.8136 9.65613 10.8746 9.55115 10.9576 9.43884C11.026 9.3363 11.0992 9.23865 11.1773 9.14587C11.2604 9.04822 11.3434 8.953 11.4264 8.86023C11.5094 8.76257 11.5924 8.66492 11.6754 8.56726C11.7584 8.4696 11.8365 8.36707 11.9098 8.25964C12.0367 8.09363 12.1441 7.92029 12.232 7.73962C12.3248 7.55408 12.4322 7.3783 12.5543 7.21228C12.5689 7.19763 12.5885 7.16833 12.6129 7.12439C12.6422 7.07556 12.6617 7.04382 12.6715 7.02917C12.691 7.02429 12.7057 7.0072 12.7154 6.97791C12.7252 6.94861 12.735 6.92908 12.7447 6.91931C12.7545 6.91443 12.7716 6.89978 12.796 6.87537C12.8253 6.85095 12.8546 6.8241 12.8839 6.7948C12.9181 6.76062 12.9474 6.72888 12.9718 6.69958C13.0011 6.67029 13.0182 6.65076 13.023 6.64099L13.045 6.59705C13.0645 6.56775 13.0743 6.54333 13.0743 6.5238C13.1622 6.39197 13.2599 6.26746 13.3673 6.15027C13.4796 6.0282 13.5846 5.8988 13.6822 5.76208C13.7604 5.66443 13.8238 5.56921 13.8727 5.47644C13.9264 5.37878 13.9996 5.28601 14.0924 5.19812C14.0924 5.19324 14.1046 5.17859 14.129 5.15417C14.1583 5.12488 14.19 5.09558 14.2242 5.06628C14.2584 5.0321 14.2877 5.00281 14.3121 4.97839C14.3414 4.9491 14.3609 4.92957 14.3707 4.9198C14.3707 4.91492 14.3731 4.90027 14.378 4.87585C14.3829 4.85144 14.3878 4.82703 14.3927 4.80261C14.3976 4.7782 14.4024 4.75623 14.4073 4.73669C14.4122 4.71716 14.4171 4.70496 14.422 4.70007C14.4269 4.68542 14.4391 4.66833 14.4586 4.6488C14.483 4.62439 14.5074 4.59998 14.5318 4.57556C14.5562 4.55115 14.5782 4.52917 14.5978 4.50964C14.6222 4.49011 14.6393 4.47791 14.649 4.47302C14.7125 4.40466 14.7687 4.33142 14.8175 4.2533C14.8712 4.17029 14.9298 4.0946 14.9933 4.02625C15.0567 3.95789 15.1275 3.90173 15.2057 3.85779C15.2838 3.81384 15.3814 3.79187 15.4986 3.79187C15.5816 3.79187 15.6378 3.81873 15.6671 3.87244C15.6964 3.92615 15.711 3.99207 15.711 4.07019V4.1947C15.711 4.20447 15.6988 4.23376 15.6744 4.28259C15.6549 4.32654 15.6451 4.35095 15.6451 4.35583C15.6451 4.39001 15.6402 4.44373 15.6305 4.51697C15.6256 4.59021 15.6183 4.66589 15.6085 4.74402C15.6036 4.82214 15.5987 4.89539 15.5938 4.96375C15.589 5.0321 15.5865 5.07605 15.5865 5.09558V8.94812C15.5865 8.99695 15.5987 9.06287 15.6231 9.14587C15.6476 9.224 15.6793 9.30212 15.7184 9.38025C15.7623 9.45837 15.8136 9.52673 15.8722 9.58533C15.9308 9.63904 15.9942 9.66589 16.0626 9.66589H16.1065C16.1065 9.66101 16.1139 9.65369 16.1285 9.64392C16.1432 9.62927 16.1578 9.61707 16.1725 9.6073C16.192 9.59265 16.2091 9.58044 16.2237 9.57068C16.2433 9.56091 16.253 9.55603 16.253 9.55603C16.2579 9.55115 16.2726 9.54626 16.297 9.54138C16.3263 9.5365 16.3556 9.53162 16.3849 9.52673C16.419 9.52185 16.4508 9.51697 16.4801 9.51208C16.5094 9.5072 16.5313 9.49988 16.546 9.49011C16.7169 9.47058 16.8853 9.45105 17.0514 9.43152C17.2223 9.41199 17.3858 9.38269 17.5421 9.34363C17.6983 9.29968 17.8448 9.23865 17.9815 9.16052C18.1231 9.07751 18.2525 8.96277 18.3697 8.81628C18.399 8.78699 18.4332 8.73328 18.4723 8.65515C18.5162 8.57703 18.5626 8.50134 18.6114 8.4281C18.6603 8.34998 18.7115 8.28406 18.7652 8.23035C18.8189 8.17664 18.8727 8.1571 18.9264 8.17175C18.9508 8.17175 18.9776 8.1864 19.0069 8.2157C19.0411 8.24011 19.0582 8.25476 19.0582 8.25964C19.0582 8.56238 19.0509 8.83826 19.0362 9.08728C19.0265 9.3363 19.0167 9.59265 19.0069 9.85632C18.9679 9.87585 18.9483 9.92468 18.9483 10.0028C18.9483 10.076 18.9435 10.1566 18.9337 10.2445C18.9288 10.3275 18.9068 10.4032 18.8678 10.4716C18.8287 10.535 18.753 10.5668 18.6407 10.5668C18.5724 10.5668 18.5162 10.557 18.4723 10.5375C18.4332 10.5179 18.3868 10.5082 18.3331 10.5082H18.2599C18.2501 10.5082 18.2281 10.5106 18.1939 10.5155C18.1646 10.5204 18.1305 10.5253 18.0914 10.5302C18.0572 10.535 18.023 10.5399 17.9889 10.5448C17.9596 10.5497 17.94 10.5521 17.9303 10.5521C17.9254 10.5521 17.9034 10.5546 17.8644 10.5594C17.8253 10.5594 17.7789 10.5594 17.7252 10.5594C17.6715 10.5594 17.6153 10.5619 17.5567 10.5668C17.503 10.5668 17.4591 10.5668 17.4249 10.5668C17.2589 10.5668 17.0953 10.557 16.9342 10.5375C16.7779 10.5179 16.6144 10.5082 16.4435 10.5082C16.3458 10.5082 16.2481 10.5302 16.1505 10.5741C16.0577 10.618 15.9625 10.6498 15.8648 10.6693C15.8551 10.6986 15.8453 10.7499 15.8355 10.8231C15.8258 10.9012 15.8136 10.9818 15.7989 11.0648C15.7892 11.1478 15.7794 11.226 15.7696 11.2992C15.7599 11.3724 15.7525 11.4237 15.7477 11.453V11.6581C15.7477 11.8143 15.7599 11.9828 15.7843 12.1635C15.8087 12.3441 15.86 12.5126 15.9381 12.6688C15.9625 12.8397 15.9771 13.0155 15.982 13.1962C15.9869 13.3768 15.9894 13.5575 15.9894 13.7382C15.9894 13.8065 15.9674 13.8578 15.9234 13.892C15.8844 13.931 15.8355 13.9603 15.777 13.9799C15.7184 13.9994 15.6598 14.0116 15.6012 14.0165C15.5426 14.0214 15.4986 14.0238 15.4693 14.0238C15.2838 14.0238 15.1251 14.0067 14.9933 13.9725C14.8614 13.9432 14.754 13.8895 14.671 13.8114C14.588 13.7382 14.5245 13.6381 14.4806 13.5111C14.4415 13.389 14.422 13.2352 14.422 13.0497Z" fill="white"/>
<path d="M19.2855 10.413C19.2855 10.3348 19.3026 10.2738 19.3368 10.2299C19.371 10.181 19.4125 10.1444 19.4613 10.12C19.515 10.0956 19.5736 10.0809 19.6371 10.076C19.7055 10.0663 19.7738 10.0614 19.8422 10.0614C19.8764 10.0614 19.9154 10.0638 19.9594 10.0687C20.0033 10.0736 20.0448 10.076 20.0839 10.076C20.1083 10.076 20.1278 10.0736 20.1425 10.0687C20.162 10.0638 20.1767 10.0614 20.1864 10.0614C20.2645 10.0614 20.3402 10.0443 20.4135 10.0101C20.4867 9.97107 20.5478 9.92957 20.5966 9.88562L20.6112 9.87097C20.6259 9.85632 20.6332 9.849 20.6332 9.849C20.6625 9.59998 20.6869 9.34607 20.7064 9.08728C20.7309 8.82361 20.7431 8.56482 20.7431 8.31091C20.7431 8.12537 20.7333 7.94226 20.7138 7.7616C20.6991 7.57605 20.6918 7.38318 20.6918 7.18298V6.65564C20.7016 6.64587 20.7113 6.62146 20.7211 6.5824C20.7309 6.53845 20.7382 6.5116 20.7431 6.50183V6.47253C20.7431 6.29187 20.726 6.12097 20.6918 5.95984C20.6576 5.79871 20.6381 5.62537 20.6332 5.43982C20.6332 5.42517 20.6332 5.39832 20.6332 5.35925C20.6332 5.32019 20.6332 5.2738 20.6332 5.22009C20.6381 5.16638 20.6405 5.11023 20.6405 5.05164C20.6405 4.98816 20.6405 4.92957 20.6405 4.87585C20.6405 4.82703 20.6381 4.78552 20.6332 4.75134C20.6332 4.71228 20.6332 4.68298 20.6332 4.66345C20.6283 4.5658 20.5868 4.49255 20.5087 4.44373C20.4354 4.3949 20.3427 4.36072 20.2304 4.34119C20.1181 4.31677 19.9984 4.29968 19.8715 4.28992C19.7445 4.27527 19.6273 4.25574 19.5199 4.23132C19.4125 4.20203 19.3222 4.16052 19.2489 4.10681C19.1757 4.04822 19.1391 3.96277 19.1391 3.85046C19.1391 3.74304 19.1781 3.6698 19.2562 3.63074C19.3393 3.59167 19.4345 3.57214 19.5419 3.57214C19.6249 3.57214 19.7079 3.57703 19.7909 3.58679C19.8788 3.59656 19.9569 3.60144 20.0253 3.60144C20.0351 3.60144 20.0619 3.59412 20.1059 3.57947C20.1498 3.55994 20.1767 3.54529 20.1864 3.53552H20.2743C20.4306 3.53552 20.5819 3.54773 20.7284 3.57214C20.8749 3.59167 21.0238 3.60144 21.1752 3.60144H21.2558C21.2606 3.60144 21.2826 3.599 21.3217 3.59412C21.3607 3.58923 21.4022 3.58435 21.4462 3.57947C21.4901 3.5697 21.5316 3.56238 21.5707 3.5575C21.6098 3.54773 21.6342 3.54041 21.6439 3.53552H21.6952C21.7001 3.54041 21.7196 3.55017 21.7538 3.56482C21.788 3.57458 21.8222 3.58679 21.8563 3.60144C21.8954 3.61609 21.9296 3.63074 21.9589 3.64539C21.9931 3.66003 22.015 3.6698 22.0248 3.67468C22.0346 3.67468 22.059 3.67224 22.098 3.66736C22.1371 3.65759 22.1786 3.64783 22.2226 3.63806C22.2714 3.6283 22.3153 3.62097 22.3544 3.61609C22.3935 3.60632 22.4179 3.60144 22.4276 3.60144H23.0795C23.1186 3.56726 23.1527 3.54773 23.182 3.54285C23.2162 3.53796 23.2528 3.53552 23.2919 3.53552C23.3749 3.53552 23.453 3.54773 23.5263 3.57214C23.5995 3.59656 23.6776 3.63074 23.7606 3.67468C23.8144 3.68933 23.8461 3.70886 23.8559 3.73328C23.8705 3.75769 23.8778 3.78943 23.8778 3.82849V3.93103C23.8778 3.99939 23.8656 4.0531 23.8412 4.09216C23.8168 4.12634 23.7826 4.1532 23.7387 4.17273C23.6996 4.19226 23.6532 4.20447 23.5995 4.20935C23.5458 4.21423 23.4896 4.21667 23.4311 4.21667C23.392 4.21667 23.3578 4.21667 23.3285 4.21667C23.3041 4.21179 23.2748 4.20935 23.2406 4.20935C23.2016 4.20935 23.1649 4.21423 23.1308 4.224C23.1015 4.22888 23.0697 4.24353 23.0355 4.26794C22.9232 4.28748 22.8158 4.30212 22.7133 4.31189C22.6107 4.31677 22.5204 4.33142 22.4423 4.35583C22.3642 4.38025 22.3031 4.42419 22.2592 4.48767C22.2152 4.55115 22.1933 4.65125 22.1933 4.78796C22.1933 4.96863 22.203 5.14929 22.2226 5.32996C22.2421 5.51062 22.2519 5.68884 22.2519 5.86462V5.94519C22.2519 5.96472 22.247 6.00378 22.2372 6.06238C22.2323 6.12097 22.225 6.18445 22.2152 6.25281C22.2104 6.32117 22.2055 6.38464 22.2006 6.44324C22.1957 6.50183 22.1933 6.54089 22.1933 6.56042C22.1933 6.5946 22.1908 6.66296 22.1859 6.7655C22.1859 6.86316 22.1859 6.97791 22.1859 7.10974C22.1859 7.24158 22.1835 7.38318 22.1786 7.53455C22.1786 7.68591 22.1786 7.82751 22.1786 7.95935C22.1786 8.09119 22.1811 8.20837 22.1859 8.31091C22.1908 8.40857 22.1933 8.47205 22.1933 8.50134C22.1933 8.52576 22.1884 8.58679 22.1786 8.68445C22.1688 8.7821 22.1566 8.88953 22.142 9.00671C22.1273 9.11902 22.1127 9.224 22.098 9.32166C22.0883 9.41931 22.081 9.48035 22.0761 9.50476V9.62927C22.0907 9.65369 22.1054 9.68298 22.12 9.71716C22.1395 9.74646 22.1591 9.7782 22.1786 9.81238C22.203 9.84656 22.2274 9.87585 22.2519 9.90027C22.2812 9.92468 22.3153 9.93933 22.3544 9.94421C22.3739 9.9491 22.4081 9.95642 22.4569 9.96619C22.5106 9.97107 22.5668 9.97839 22.6254 9.98816C22.684 9.99304 22.7426 10.0004 22.8012 10.0101C22.8598 10.015 22.9062 10.0199 22.9403 10.0248H23.1308C23.1942 10.0248 23.2528 10.0272 23.3065 10.0321C23.3651 10.037 23.4164 10.0516 23.4604 10.076C23.5043 10.1005 23.5458 10.1395 23.5849 10.1932C23.6239 10.2421 23.6605 10.3129 23.6947 10.4056V10.4569C23.6947 10.5057 23.6679 10.557 23.6142 10.6107C23.5653 10.6644 23.5214 10.6913 23.4823 10.6913C23.4384 10.6913 23.3822 10.6888 23.3139 10.684C23.2455 10.684 23.1747 10.6815 23.1015 10.6766C23.0282 10.6766 22.9574 10.6742 22.8891 10.6693C22.8207 10.6693 22.7645 10.6693 22.7206 10.6693H20.4135C20.3256 10.7035 20.2328 10.723 20.1352 10.7279C20.0424 10.7328 19.9447 10.7352 19.8422 10.7352H19.5272C19.3661 10.6913 19.2855 10.5839 19.2855 10.413Z" fill="white"/>
<path d="M371.115 3.66932V7.66932C371.919 7.33055 372.443 6.54246 372.443 5.66932C372.443 4.79619 371.919 4.0081 371.115 3.66932Z" fill="white"/>
<path d="M350.115 4.13599C350.115 3.38925 350.115 3.01588 350.26 2.73067C350.388 2.47978 350.592 2.27581 350.843 2.14798C351.128 2.00266 351.501 2.00266 352.248 2.00266H365.981C366.728 2.00266 367.102 2.00266 367.387 2.14798C367.638 2.27581 367.842 2.47978 367.969 2.73067C368.115 3.01588 368.115 3.38925 368.115 4.13599V7.20265C368.115 7.94939 368.115 8.32276 367.969 8.60798C367.842 8.85886 367.638 9.06283 367.387 9.19066C367.102 9.33599 366.728 9.33599 365.981 9.33599H352.248C351.501 9.33599 351.128 9.33599 350.843 9.19066C350.592 9.06283 350.388 8.85886 350.26 8.60798C350.115 8.32276 350.115 7.94939 350.115 7.20265V4.13599Z" fill="white"/>
<path fill-rule="evenodd" clip-rule="evenodd" d="M335.449 2.28448C337.673 2.28457 339.813 3.13869 341.425 4.67028C341.547 4.78852 341.741 4.78703 341.86 4.66693L343.021 3.4966C343.081 3.43569 343.115 3.35318 343.115 3.26733C343.114 3.18148 343.08 3.09937 343.018 3.03917C338.786 -1.01306 332.11 -1.01306 327.878 3.03917C327.817 3.09933 327.782 3.18141 327.781 3.26726C327.781 3.35311 327.815 3.43565 327.875 3.4966L329.036 4.66693C329.156 4.78721 329.35 4.78871 329.471 4.67028C331.084 3.13859 333.224 2.28447 335.449 2.28448ZM335.449 6.09206C336.671 6.09199 337.85 6.54594 338.756 7.36571C338.878 7.48206 339.071 7.47954 339.191 7.36003L340.35 6.1897C340.411 6.12831 340.445 6.04504 340.444 5.9585C340.443 5.87196 340.408 5.78939 340.345 5.72926C337.586 3.16485 333.313 3.16485 330.554 5.72926C330.492 5.78939 330.456 5.872 330.455 5.95857C330.455 6.04513 330.489 6.1284 330.55 6.1897L331.709 7.36003C331.828 7.47954 332.021 7.48206 332.144 7.36571C333.049 6.54648 334.227 6.09257 335.449 6.09206ZM337.771 8.6539C337.772 8.74068 337.738 8.82434 337.676 8.88514L335.671 10.9071C335.612 10.9666 335.532 11 335.449 11C335.365 11 335.285 10.9666 335.226 10.9071L333.22 8.88514C333.158 8.82429 333.124 8.7406 333.126 8.65382C333.128 8.56705 333.166 8.48487 333.23 8.4267C334.511 7.34443 336.386 7.34443 337.667 8.4267C337.731 8.48492 337.769 8.56712 337.771 8.6539Z" fill="white"/>
<path fill-rule="evenodd" clip-rule="evenodd" d="M321.781 0.335968H320.781C320.229 0.335968 319.781 0.783683 319.781 1.33597V10.0026C319.781 10.5549 320.229 11.0026 320.781 11.0026H321.781C322.334 11.0026 322.781 10.5549 322.781 10.0026V1.33597C322.781 0.783683 322.334 0.335968 321.781 0.335968ZM316.115 2.6693H317.115C317.667 2.6693 318.115 3.11702 318.115 3.6693V10.0026C318.115 10.5549 317.667 11.0026 317.115 11.0026H316.115C315.562 11.0026 315.115 10.5549 315.115 10.0026V3.6693C315.115 3.11702 315.562 2.6693 316.115 2.6693ZM312.448 5.00263H311.448C310.896 5.00263 310.448 5.45035 310.448 6.00263V10.0026C310.448 10.5549 310.896 11.0026 311.448 11.0026H312.448C313 11.0026 313.448 10.5549 313.448 10.0026V6.00263C313.448 5.45035 313 5.00263 312.448 5.00263ZM307.781 7.00263H306.781C306.229 7.00263 305.781 7.45035 305.781 8.00263V10.0026C305.781 10.5549 306.229 11.0026 306.781 11.0026H307.781C308.334 11.0026 308.781 10.5549 308.781 10.0026V8.00263C308.781 7.45035 308.334 7.00263 307.781 7.00263Z" fill="white"/>
</svg>
