<svg width="26" height="33" viewBox="0 0 26 33" fill="none" xmlns="http://www.w3.org/2000/svg">
<path d="M23.1111 0H2.88889C1.28556 0 0 1.37483 0 3.05518V24.4414C0 26.1218 1.28556 27.4966 2.88889 27.4966H8.66667L13 32.0794L17.3333 27.4966H23.1111C24.7 27.4966 26 26.1218 26 24.4414V3.05518C26 1.37483 24.7 0 23.1111 0ZM23.1111 24.4414H16.1344L15.2822 25.3427L13 27.7563L10.7033 25.3274L9.86555 24.4414H2.88889V3.05518H23.1111V24.4414ZM13 13.7483C15.3833 13.7483 17.3333 11.6861 17.3333 9.16554C17.3333 6.64502 15.3833 4.58277 13 4.58277C10.6167 4.58277 8.66667 6.64502 8.66667 9.16554C8.66667 11.6861 10.6167 13.7483 13 13.7483ZM13 7.63795C13.7944 7.63795 14.4444 8.32537 14.4444 9.16554C14.4444 10.0057 13.7944 10.6931 13 10.6931C12.2056 10.6931 11.5556 10.0057 11.5556 9.16554C11.5556 8.32537 12.2056 7.63795 13 7.63795ZM21.6667 20.7447C21.6667 16.9257 15.9322 15.2759 13 15.2759C10.0678 15.2759 4.33333 16.9257 4.33333 20.7447V22.9139H21.6667V20.7447ZM7.91555 19.8587C8.98444 19.0796 11.1367 18.3311 13 18.3311C14.8633 18.3311 17.0156 19.0796 18.0844 19.8587H7.91555Z" fill="#BBC9DA"/>
</svg>
